<svg viewBox="0 0 33 38" xmlns="http://www.w3.org/2000/svg" shape-rendering="geometricPrecision">
<path d="M16.2715 19.323V26.4089L10 22.7878V15.7019L16.2715 19.323ZM23.1934 22.7878L16.9219 26.4089V19.324L23.1934 15.7029V22.7878ZM22.8682 15.1404L16.5967 18.7605L10.3242 15.1404L16.5967 11.5193L22.8682 15.1404Z" fill="#B38FFF"/>
<path d="M28.0969 31.0559L32.9616 28.2473L32.9615 9.18346L26.3647 5.37476L21.5 8.1834L28.0968 11.9921L28.0969 31.0559Z" fill="white"/>
<path d="M21.3745 3.1834L16.5097 0.374756L3.08782e-05 9.90673L0 17.5241L4.86472 20.3327L4.86475 12.7154L21.3745 3.1834Z" fill="white"/>
<path d="M0 22.3748L9.18922e-06 27.9921L16.5098 37.5239L23.1066 33.7152V28.098L16.5098 31.9066L0 22.3748Z" fill="white"/>
</svg>