<svg xmlns="http://www.w3.org/2000/svg" shape-rendering="geometricPrecision" viewBox="0 0 33 38"><path fill="#B38FFF" d="M16.271 19.323v7.086L10 22.788v-7.086l6.271 3.621Zm6.922 3.465-6.271 3.62v-7.084l6.271-3.621v7.085Zm-.325-7.648-6.271 3.62-6.273-3.62 6.273-3.62 6.271 3.62Z"/><path fill="#fff" d="m28.097 31.056 4.865-2.809V9.183l-6.597-3.808L21.5 8.183l6.597 3.81v19.063ZM21.375 3.183 16.51.375 0 9.907v7.617l4.865 2.809v-7.618l16.51-9.532ZM0 22.375v5.617l16.51 9.532 6.597-3.809v-5.617l-6.597 3.809L0 22.375Z"/></svg>